name C:\Users\r0593348\3dpredictsim\Results\Batchsim_tmt_linear_v2\Pog_s1_tmt_bCst_d00_k250_ig24_act.mot
datacolumns 128
datarows 4
range 1.05806102 1.08980285
endheader
time	pelvis_tilt	pelvis_list	pelvis_rotation	pelvis_tx	pelvis_ty	pelvis_tz	hip_flexion_l	hip_adduction_l	hip_rotation_l	hip_flexion_r	hip_adduction_r	hip_rotation_r	knee_angle_l	knee_angle_r	ankle_angle_l	ankle_angle_r	subtalar_angle_l	subtalar_angle_r	tmt_angle_l	tmt_angle_r	mtp_angle_l	mtp_angle_r	lumbar_extension	lumbar_bending	lumbar_rotation	arm_flex_l	arm_add_l	arm_rot_l	arm_flex_r	arm_add_r	arm_rot_r	elbow_flex_l	elbow_flex_r	pro_sup_l	pro_sup_r	glut_med1_l/activation	glut_med2_l/activation	glut_med3_l/activation	glut_min1_l/activation	glut_min2_l/activation	glut_min3_l/activation	semimem_l/activation	semiten_l/activation	bifemlh_l/activation	bifemsh_l/activation	sar_l/activation	add_long_l/activation	add_brev_l/activation	add_mag1_l/activation	add_mag2_l/activation	add_mag3_l/activation	tfl_l/activation	pect_l/activation	grac_l/activation	glut_max1_l/activation	glut_max2_l/activation	glut_max3_l/activation	iliacus_l/activation	psoas_l/activation	quad_fem_l/activation	gem_l/activation	peri_l/activation	rect_fem_l/activation	vas_med_l/activation	vas_int_l/activation	vas_lat_l/activation	med_gas_l/activation	lat_gas_l/activation	soleus_l/activation	tib_post_l/activation	flex_dig_l/activation	flex_hal_l/activation	tib_ant_l/activation	per_brev_l/activation	per_long_l/activation	per_tert_l/activation	ext_dig_l/activation	ext_hal_l/activation	ercspn_l/activation	intobl_l/activation	extobl_l/activation	glut_med1_r/activation	glut_med2_r/activation	glut_med3_r/activation	glut_min1_r/activation	glut_min2_r/activation	glut_min3_r/activation	semimem_r/activation	semiten_r/activation	bifemlh_r/activation	bifemsh_r/activation	sar_r/activation	add_long_r/activation	add_brev_r/activation	add_mag1_r/activation	add_mag2_r/activation	add_mag3_r/activation	tfl_r/activation	pect_r/activation	grac_r/activation	glut_max1_r/activation	glut_max2_r/activation	glut_max3_r/activation	iliacus_r/activation	psoas_r/activation	quad_fem_r/activation	gem_r/activation	peri_r/activation	rect_fem_r/activation	vas_med_r/activation	vas_int_r/activation	vas_lat_r/activation	med_gas_r/activation	lat_gas_r/activation	soleus_r/activation	tib_post_r/activation	flex_dig_r/activation	flex_hal_r/activation	tib_ant_r/activation	per_brev_r/activation	per_long_r/activation	per_tert_r/activation	ext_dig_r/activation	ext_hal_r/activation	ercspn_r/activation	intobl_r/activation	extobl_r/activation	
          1.05806102	          1.00845074	          1.77551948	          5.78195288	          1.32257627	          0.90173260	         -0.00234845	        -11.69878002	          2.29664356	         -0.29985772	         24.30437344	         -1.34671727	         -1.64856987	        -22.34053159	        -14.95220371	        -46.21038188	        -28.85858892	        -15.56321870	         -6.64796362	          1.80003343	         -0.13956123	         46.42393930	          0.05964649	         -0.11095727	         -3.66961601	         -1.09905121	          3.99229985	        -13.46698970	          9.97170367	        -19.46879427	        -13.46182872	         15.54700326	         27.03334267	         21.14757688	         86.51662706	         86.51662706	          0.17306808	          0.05000043	          0.05758503	          0.14455605	          0.05859290	          0.05008462	          0.05000171	          0.05000013	          0.05000020	          0.05000028	          0.08139002	          0.44258190	          0.23863659	          0.07306384	          0.05000519	          0.05000036	          0.09571767	          0.12997657	          0.06918386	          0.05000238	          0.05000112	          0.05000100	          0.40186286	          0.55830887	          0.35211400	          0.10136461	          0.07371800	          0.37211318	          0.16403946	          0.15575852	          0.12314320	          0.07310167	          0.12697639	          0.05778082	          0.11378500	          0.06842270	          0.07215704	          0.37250006	          0.31802768	          0.12074643	          0.81705877	          0.86921503	          0.16908853	          0.05000004	          0.05000003	          0.05000003	          0.11879790	          0.09523156	          0.11129775	          0.05006241	          0.05001109	          0.05001115	          0.30630172	          0.15334661	          0.24401170	          0.05000028	          0.05070674	          0.07395881	          0.13248687	          0.23410709	          0.24589100	          0.18923020	          0.05000026	          0.05000728	          0.13069351	          0.08144687	          0.14593684	          0.21514462	          0.06013272	          0.05881697	          0.07803102	          0.05000352	          0.05000297	          0.05000005	          0.05495789	          0.06701252	          0.06150992	          0.05000007	          0.05000027	          0.05000000	          0.16664622	          0.05000022	          0.05000007	          0.06565956	          0.14956476	          0.12756691	          0.31522328	          0.11731449	          0.09653786	          0.05581641	          0.14185970	          0.08959035	
          1.06864163	          1.03404856	          1.91424466	          5.83019550	          1.33926910	          0.89944881	         -0.00211033	        -11.58405754	          2.19521601	         -0.58807100	         23.67928341	         -1.26954307	         -1.33610449	        -23.93149407	        -15.18588711	        -47.13645899	        -27.74731064	        -15.12467616	         -6.98347866	          1.48026645	         -0.05783401	         43.93287780	          0.49080966	          0.09612434	         -3.52575294	         -1.18532729	          3.93727481	        -13.49356204	         10.20956402	        -20.62260402	        -13.45199939	         15.77090298	         27.25443796	         21.23320895	         86.51662706	         86.51662706	          0.14712379	          0.05000037	          0.05000043	          0.12288596	          0.05000146	          0.05000175	          0.05000059	          0.05000005	          0.05000007	          0.05000006	          0.06918917	          0.37623533	          0.24349106	          0.06211432	          0.05000303	          0.05000025	          0.08136939	          0.11049227	          0.05881292	          0.05000289	          0.05000090	          0.05000067	          0.34162035	          0.47461385	          0.29932932	          0.08616942	          0.06266717	          0.31633038	          0.15143610	          0.13241847	          0.10468314	          0.06214337	          0.10794185	          0.05000035	          0.09672771	          0.05816569	          0.06134013	          0.41727849	          0.33288973	          0.10264568	          0.89272660	          0.92331008	          0.31354251	          0.05000018	          0.05000000	          0.05000021	          0.18789008	          0.10293419	          0.13870237	          0.05000199	          0.05000200	          0.05000213	          0.26038460	          0.13035871	          0.20743236	          0.05881720	          0.05000069	          0.08138988	          0.11262609	          0.19901270	          0.20903090	          0.17661656	          0.05000011	          0.05017960	          0.11110172	          0.06923756	          0.13529176	          0.18289295	          0.05111837	          0.05000008	          0.08799091	          0.05000141	          0.05034550	          0.05000011	          0.05001002	          0.16631323	          0.15172477	          0.05000003	          0.05000004	          0.07297964	          0.19821115	          0.05000047	          0.05454228	          0.06918921	          0.12714380	          0.10844360	          0.26902634	          0.12103847	          0.16309204	          0.05000013	          0.13074744	          0.07616004	
          1.07922224	          1.06623638	          2.04797676	          5.84070202	          1.35605793	          0.89674194	         -0.00185869	        -11.33175235	          2.11155937	         -0.84420239	         22.92497757	         -1.15236080	         -1.01304867	        -25.83439112	        -15.91882452	        -47.64221188	        -26.14926550	        -14.66938608	         -7.39817093	          1.19437593	          0.60047139	         40.46036848	          1.87844640	          0.30890938	         -3.35930525	         -1.26810818	          3.86245032	        -13.53225760	         10.46480019	        -21.72102684	        -13.44996052	         15.96494002	         27.37472272	         21.23519679	         86.51662706	         86.51662706	          0.12506875	          0.05000034	          0.06068929	          0.10446440	          0.05000094	          0.05000088	          0.05617450	          0.05000026	          0.05000389	          0.05000009	          0.05881723	          0.31983462	          0.24838149	          0.25467963	          0.05005327	          0.14981646	          0.06917152	          0.09392867	          0.05000075	          0.05000748	          0.05001270	          0.05012001	          0.29040868	          0.40346537	          0.25445752	          0.07727498	          0.05881773	          0.26890987	          0.12873464	          0.11256791	          0.08899031	          0.05881704	          0.09176605	          0.05772778	          0.08222744	          0.05000028	          0.05214477	          0.43675621	          0.28486445	          0.08725831	          0.93709680	          0.95503041	          0.26653995	          0.05000000	          0.05324620	          0.08936465	          0.15976240	          0.12178170	          0.17037773	          0.05000058	          0.05000041	          0.05000788	          0.22135082	          0.11081688	          0.17633656	          0.05000012	          0.05000006	          0.06918917	          0.09574257	          0.16917916	          0.17769558	          0.15014035	          0.05881147	          0.05000158	          0.09444678	          0.05885850	          0.12073956	          0.15547584	          0.05000004	          0.05000017	          0.08639831	          0.05000028	          0.09856271	          0.05000028	          0.18900171	          0.21919045	          0.20207754	          0.05000002	          0.05000003	          0.06996245	          0.30914978	          0.22966680	          0.24441494	          0.05881718	          0.10808393	          0.09218705	          0.22869711	          0.10289382	          0.13864324	          0.05000000	          0.11114734	          0.06810794	
          1.08980285	          1.10186785	          2.16579258	          5.81094340	          1.37283057	          0.89376892	         -0.00158815	        -10.94865815	          2.03534337	         -1.06804680	         21.97578738	         -0.99696559	         -0.67210708	        -27.95855879	        -16.87753399	        -47.82794469	        -23.90854818	        -14.18045177	         -7.81798493	          0.83873080	          1.56362430	         36.06370470	          4.46064110	          0.52022998	         -3.16225239	         -1.34751659	          3.77680029	        -13.57932852	         10.74744217	        -22.73686287	        -13.45657518	         16.13616926	         27.39399182	         21.14735427	         86.51662706	         86.51662706	          0.10632011	          0.08618124	          0.05881705	          0.08880439	          0.05000099	          0.05000144	          0.06921740	          0.05000008	          0.05000030	          0.05000002	          0.05000026	          0.27188882	          0.32932889	          0.21650152	          0.11914289	          0.15585110	          0.05880233	          0.07984810	          0.05000019	          0.06991729	          0.09567892	          0.13247392	          0.24687405	          0.34298263	          0.21631230	          0.06569094	          0.05000054	          0.22859809	          0.10943628	          0.09569308	          0.07564994	          0.05000034	          0.08238446	          0.05000014	          0.06990088	          0.05000101	          0.05000017	          0.37502333	          0.24216105	          0.07417760	          0.87259548	          0.97363063	          0.56991207	          0.05506077	          0.05665595	          0.07596818	          0.24977764	          0.31357284	          0.45405502	          0.07887143	          0.05047393	          0.40896327	          0.18816853	          0.09420454	          0.14990227	          0.05000018	          0.05090592	          0.05881720	          0.08139000	          0.14381785	          0.15105761	          0.12763316	          0.05000008	          0.05881666	          0.08028850	          0.05003520	          0.14565808	          0.13216879	          0.05000031	          0.05000009	          0.07344662	          0.15580714	          0.35156064	          0.05000004	          0.16067429	          0.19818166	          0.18362217	          0.11262665	          0.15953078	          0.09285439	          0.38694316	          0.46516182	          0.36607771	          0.05000002	          0.09188127	          0.07836746	          0.19441356	          0.08746920	          0.11785955	          0.05000000	          0.09448545	          0.05789803	
